<?xml version="1.0" encoding="utf-8"?>
<!-- Generator: Adobe Illustrator 25.4.1, SVG Export Plug-In . SVG Version: 6.00 Build 0)  -->
<svg version="1.1" id="Layer_1" xmlns="http://www.w3.org/2000/svg" xmlns:xlink="http://www.w3.org/1999/xlink" x="0px" y="0px"
	 viewBox="0 0 1660.42 733.33" style="enable-background:new 0 0 1660.42 733.33;" xml:space="preserve">
<style type="text/css">
	.st0{fill:#32373C;}
</style>
<g id="Logotype_1_">
	<g id="Wordmark_1_">
		<path class="st0" d="M748.13,533.94h-81.95v8.7c25.64,0,29.76,5.49,29.76,38v58.61c0,32.5-4.12,38.46-29.76,38.46
			c-19.68-2.75-32.96-13.28-51.28-33.42l-21.06-22.89c28.38-5.04,43.49-22.89,43.49-43.04c0-25.18-21.52-44.41-61.81-44.41h-80.58
			v8.7c25.64,0,29.76,5.49,29.76,38v58.61c0,32.5-4.12,38.46-29.76,38.46v8.7h91.11v-8.7c-25.64,0-29.76-5.95-29.76-38.46v-16.48
			h7.78l50.82,63.64h133.23c65.47,0,93.86-34.79,93.86-76.46C841.98,568.28,813.6,533.94,748.13,533.94z M556.29,608.56v-60.89
			h18.77c20.6,0,29.76,14.19,29.76,30.67c0,16.03-9.16,30.22-29.76,30.22H556.29z M749.5,672.21h-3.21
			c-16.48,0-18.77-4.12-18.77-25.18v-99.35c0,0,20.14,0,21.98,0c47.61,0,56.31,34.79,56.31,61.81
			C805.81,637.41,797.11,672.21,749.5,672.21z"/>
		<path class="st0" d="M239.94,625.51l31.59-93.41c9.16-27.01,5.04-34.79-24.26-34.79v-9.16h86.07v9.16
			c-28.84,0-35.71,6.87-47.16,40.29l-52.2,156.58h-5.95l-46.7-143.31l-47.61,143.31h-5.95L76.95,537.6
			c-10.99-33.42-18.32-40.29-44.87-40.29v-9.16h101.64v9.16c-27.02,0-34.34,6.41-24.72,34.79l30.67,93.41l46.24-137.36h8.7
			L239.94,625.51z"/>
		<path class="st0" d="M395.59,692.35c-50.36,0-91.57-37.08-91.57-82.42c0-44.87,41.21-81.96,91.57-81.96
			c50.36,0,91.57,37.09,91.57,81.96C487.16,655.27,445.96,692.35,395.59,692.35z M395.59,542.18c-42.12,0-56.77,38-56.77,67.76
			c0,30.22,14.65,67.77,56.77,67.77c42.58,0,57.23-37.54,57.23-67.77C452.82,580.18,438.18,542.18,395.59,542.18z"/>
		<path class="st0" d="M955.06,677.24v9.15H850.22v-9.15c30.68,0,36.17-7.78,36.17-53.57v-73.25c0-45.79-5.49-53.11-36.17-53.11
			v-9.16h94.77c47.16,0,73.26,24.27,73.26,56.78c0,31.59-26.1,56.31-73.26,56.31h-26.1v22.43
			C918.89,669.46,924.39,677.24,955.06,677.24z M944.99,504.63h-26.1v79.67h26.1c25.64,0,37.54-17.86,37.54-39.37
			C982.53,522.95,970.63,504.63,944.99,504.63z"/>
		<path class="st0" d="M1332.77,643.37l-2.29,8.24c-4.12,15.11-9.16,20.6-41.66,20.6h-6.41c-23.8,0-27.92-5.49-27.92-38v-21.06
			c35.71,0,38.46,3.2,38.46,27.01h8.7v-68.22h-8.7c0,23.81-2.75,27.01-38.46,27.01v-51.27h25.18c32.51,0,37.54,5.49,41.66,20.6
			l2.29,8.7h7.32l-3.2-43.03h-134.61v8.7c25.64,0,29.76,5.49,29.76,38v58.61c0,29.74-3.5,37.23-23.71,38.29
			c-19.21-2.93-32.4-13.41-50.45-33.26l-21.06-22.89c28.39-5.04,43.5-22.89,43.5-43.04c0-25.18-21.52-44.41-61.81-44.41h-80.58v8.7
			c25.64,0,29.76,5.49,29.76,38v58.61c0,32.5-4.12,38.46-29.76,38.46v8.7h91.11v-8.7c-25.64,0-29.76-5.95-29.76-38.46v-16.48h7.78
			l50.82,63.64h188.17l2.75-43.03H1332.77z M1090.13,608.56v-60.89h18.77c20.6,0,29.76,14.19,29.76,30.67
			c0,16.03-9.16,30.22-29.76,30.22H1090.13z"/>
		<path class="st0" d="M1425.72,692.35c-18.31,0-34.34-9.61-41.21-15.57c-2.29,2.29-6.41,9.16-7.32,15.57h-8.7v-63.18h9.15
			c3.67,30.22,24.72,48.07,51.74,48.07c14.65,0,26.56-8.24,26.56-21.98c0-11.9-10.53-21.06-29.3-29.76l-26.1-12.36
			c-18.32-8.71-32.05-23.81-32.05-43.96c0-21.98,20.6-40.75,48.99-40.75c15.11,0,27.92,5.49,35.71,11.9
			c2.29-1.83,4.57-6.87,5.95-12.37h8.7v54.03h-9.61c-3.21-21.52-15.11-39.38-39.37-39.38c-12.82,0-24.73,7.33-24.73,18.77
			c0,11.9,9.61,18.31,31.6,28.38l25.18,12.36c21.98,10.53,30.68,27.48,30.68,41.21C1481.57,672.21,1456.39,692.35,1425.72,692.35z"
			/>
		<path class="st0" d="M1564.15,692.35c-18.31,0-34.34-9.61-41.21-15.57c-2.29,2.29-6.41,9.16-7.32,15.57h-8.7v-63.18h9.15
			c3.67,30.22,24.72,48.07,51.74,48.07c14.65,0,26.56-8.24,26.56-21.98c0-11.9-10.53-21.06-29.3-29.76l-26.1-12.36
			c-18.31-8.71-32.05-23.81-32.05-43.96c0-21.98,20.6-40.75,48.99-40.75c15.11,0,27.92,5.49,35.71,11.9
			c2.29-1.83,4.58-6.87,5.95-12.37h8.7v54.03h-9.61c-3.21-21.52-15.11-39.38-39.37-39.38c-12.82,0-24.73,7.33-24.73,18.77
			c0,11.9,9.61,18.31,31.6,28.38l25.18,12.36c21.98,10.53,30.68,27.48,30.68,41.21C1620.01,672.21,1594.82,692.35,1564.15,692.35z"
			/>
	</g>
	<g id="W_Mark_1_">
		<path class="st0" d="M826.04,36.93c26.15,0,51.51,5.12,75.38,15.21C912.9,56.99,923.96,63,934.32,70
			c10.26,6.93,19.9,14.89,28.67,23.66c8.77,8.77,16.73,18.41,23.66,28.67c6.99,10.35,13,21.42,17.85,32.89
			c10.1,23.87,15.21,49.23,15.21,75.38s-5.12,51.51-15.21,75.38c-4.85,11.47-10.86,22.54-17.85,32.89
			c-6.93,10.26-14.89,19.9-23.66,28.67c-8.77,8.77-18.41,16.73-28.67,23.66c-10.35,6.99-21.42,13-32.89,17.85
			c-23.87,10.1-49.23,15.21-75.38,15.21c-26.15,0-51.51-5.12-75.38-15.21c-11.47-4.85-22.54-10.86-32.89-17.85
			c-10.26-6.93-19.9-14.89-28.67-23.66c-8.77-8.77-16.73-18.41-23.66-28.67c-6.99-10.35-13-21.42-17.85-32.89
			c-10.1-23.87-15.21-49.23-15.21-75.38s5.12-51.51,15.21-75.38c4.85-11.47,10.86-22.54,17.85-32.89
			c6.93-10.26,14.89-19.9,23.66-28.67c8.77-8.77,18.41-16.73,28.67-23.66c10.35-6.99,21.42-13,32.89-17.85
			C774.53,42.05,799.89,36.93,826.04,36.93 M826.04,24.56c-113.79,0-206.03,92.24-206.03,206.03
			c0,113.79,92.24,206.03,206.03,206.03c113.79,0,206.03-92.24,206.03-206.03C1032.07,116.81,939.83,24.56,826.04,24.56
			L826.04,24.56z"/>
		<path class="st0" d="M654.35,230.59c0,67.96,39.49,126.69,96.77,154.52l-81.9-224.39C659.69,182.07,654.35,205.7,654.35,230.59z
			 M941.95,221.93c0-21.23-7.62-35.92-14.15-47.35c-8.7-14.15-16.87-26.12-16.87-40.27c0-15.78,11.97-30.47,28.83-30.47
			c0.76,0,1.48,0.09,2.22,0.14C911.44,75.99,870.74,58.9,826.04,58.9c-59.99,0-112.75,30.78-143.45,77.38
			c4.03,0.13,7.83,0.21,11.05,0.21c17.95,0,45.76-2.18,45.76-2.18c9.25-0.54,10.34,13.06,1.1,14.15c0,0-9.3,1.09-19.65,1.63
			l62.52,185.98l37.58-112.69l-26.75-73.29c-9.25-0.54-18.01-1.63-18.01-1.63c-9.26-0.55-8.17-14.69,1.09-14.15
			c0,0,28.35,2.18,45.22,2.18c17.95,0,45.76-2.18,45.76-2.18c9.26-0.54,10.34,13.06,1.09,14.15c0,0-9.31,1.09-19.65,1.63
			l62.05,184.56l17.71-56.12C937.34,254,941.95,236.63,941.95,221.93z M829.06,245.61L777.54,395.3c15.39,4.53,31.65,7,48.51,7
			c19.99,0,39.17-3.45,57.02-9.73c-0.46-0.73-0.88-1.51-1.23-2.37L829.06,245.61z M976.71,148.23c0.74,5.47,1.15,11.33,1.15,17.65
			c0,17.42-3.26,37-13.06,61.49l-52.44,151.62c51.04-29.76,85.37-85.06,85.37-148.4C997.73,200.74,990.11,172.68,976.71,148.23z"/>
	</g>
</g>
</svg>
